<svg width="188" height="80" viewBox="0 0 188 80" fill="none" xmlns="http://www.w3.org/2000/svg">
<path d="M40 80C62.0914 80 80 62.0914 80 40C80 17.9086 62.0914 0 40 0C17.9086 0 0 17.9086 0 40C0 62.0914 17.9086 80 40 80Z" fill="#2B2B2B"/>
<path d="M27.9062 36.25H26.0156C25.2135 36.25 24.6354 36.0469 24.2812 35.6406C23.9271 35.224 23.75 34.6771 23.75 34C23.75 32.5 24.8698 31.75 27.1094 31.75C29.2135 31.75 30.7969 32.0625 31.8594 32.6875L30.9531 33.375C30.224 33.0417 28.9427 32.875 27.1094 32.875C26.2135 32.875 25.6094 32.974 25.2969 33.1719C24.9948 33.3698 24.8438 33.6458 24.8438 34C24.8438 34.3542 24.9271 34.6302 25.0938 34.8281C25.2604 35.026 25.5677 35.125 26.0156 35.125H27.9531C29.3594 35.125 30.625 35.3646 31.75 35.8438C32.8854 36.3229 33.8177 36.9792 34.5469 37.8125C35.276 38.6354 35.8333 39.5885 36.2188 40.6719C36.6042 41.7448 36.7969 42.8958 36.7969 44.125C36.7969 45.125 36.6562 46.0729 36.375 46.9688C36.0938 47.8646 35.6667 48.6875 35.0938 49.4375C34.5312 50.1875 33.849 50.8385 33.0469 51.3906C32.2552 51.9323 31.3073 52.3542 30.2031 52.6562C29.1094 52.9688 27.9219 53.125 26.6406 53.125C24.6302 53.125 22.7448 52.8177 20.9844 52.2031C19.2344 51.599 17.776 50.75 16.6094 49.6562L17.5156 48.9844C18.5781 49.9427 19.9062 50.6875 21.5 51.2188C23.1042 51.7396 24.8177 52 26.6406 52C28.0677 52 29.3542 51.7969 30.5 51.3906C31.6562 50.974 32.6042 50.4062 33.3438 49.6875C34.0938 48.9688 34.6667 48.1354 35.0625 47.1875C35.4688 46.2396 35.6719 45.2188 35.6719 44.125C35.6719 42.6771 35.3802 41.3698 34.7969 40.2031C34.2135 39.026 33.3229 38.0729 32.125 37.3438C30.9375 36.6146 29.5312 36.25 27.9062 36.25ZM26.0156 37.375H27.7969C29.9115 37.375 31.5625 38.0208 32.75 39.3125C33.9479 40.6042 34.5469 42.2083 34.5469 44.125C34.5469 46.0729 33.8542 47.6875 32.4688 48.9688C31.0833 50.2396 29.1406 50.875 26.6406 50.875C24.974 50.875 23.4167 50.6458 21.9688 50.1875C20.5208 49.7292 19.3177 49.0833 18.3594 48.25L19.2344 47.5469C20.0885 48.2448 21.1615 48.7865 22.4531 49.1719C23.7552 49.5573 25.151 49.75 26.6406 49.75C28.8385 49.75 30.5156 49.224 31.6719 48.1719C32.8385 47.1198 33.4219 45.7708 33.4219 44.125C33.4219 42.5 32.9323 41.1562 31.9531 40.0938C30.9844 39.0312 29.5938 38.5 27.7812 38.5H26.0156C24.4948 38.5 23.3542 38.0833 22.5938 37.25C21.8333 36.4167 21.4531 35.3333 21.4531 34C21.4531 32.6667 21.9219 31.5833 22.8594 30.75C23.8073 29.9167 25.224 29.5 27.1094 29.5C28.4323 29.5 29.6615 29.6562 30.7969 29.9688C31.9323 30.2708 32.8698 30.7083 33.6094 31.2812L32.7188 31.9688C31.4167 31.0729 29.5469 30.625 27.1094 30.625C25.5365 30.625 24.3854 30.9375 23.6562 31.5625C22.9375 32.1771 22.5781 32.9896 22.5781 34C22.5781 35.0208 22.8438 35.8385 23.375 36.4531C23.9167 37.0677 24.7969 37.375 26.0156 37.375ZM26.0156 39.625H27.7344C29.2552 39.625 30.3958 40.0469 31.1562 40.8906C31.9167 41.7344 32.2969 42.8125 32.2969 44.125C32.2969 45.4583 31.8229 46.5417 30.875 47.375C29.9375 48.2083 28.526 48.625 26.6406 48.625C25.3177 48.625 24.0833 48.474 22.9375 48.1719C21.8021 47.8594 20.8646 47.4167 20.125 46.8438L21.0156 46.1562C22.3177 47.0521 24.1927 47.5 26.6406 47.5C28.2135 47.5 29.3594 47.1927 30.0781 46.5781C30.8073 45.9531 31.1719 45.1354 31.1719 44.125C31.1719 43.1146 30.901 42.3021 30.3594 41.6875C29.8177 41.0625 28.9375 40.75 27.7188 40.75H26.0156C23.8802 40.75 22.2083 40.1146 21 38.8438C19.8021 37.5625 19.2031 35.9479 19.2031 34C19.2031 32.0521 19.8958 30.4427 21.2812 29.1719C22.6667 27.8906 24.6094 27.25 27.1094 27.25C28.776 27.25 30.3281 27.4792 31.7656 27.9375C33.2135 28.3958 34.4167 29.0417 35.375 29.875L34.5 30.5781C33.6458 29.8802 32.5729 29.3385 31.2812 28.9531C29.9896 28.5677 28.599 28.375 27.1094 28.375C24.9115 28.375 23.2292 28.901 22.0625 29.9531C20.9062 31.0052 20.3281 32.3542 20.3281 34C20.3281 35.6354 20.8177 36.9844 21.7969 38.0469C22.776 39.099 24.1823 39.625 26.0156 39.625ZM26.0156 41.875H27.7344C28.5365 41.875 29.1146 42.0833 29.4688 42.5C29.8229 42.9167 30 43.4583 30 44.125C30 45.625 28.8802 46.375 26.6406 46.375C24.526 46.375 22.9375 46.0625 21.875 45.4375L22.7812 44.75C23.5104 45.0833 24.7969 45.25 26.6406 45.25C27.5365 45.25 28.1354 45.151 28.4375 44.9531C28.75 44.7552 28.9062 44.4792 28.9062 44.125C28.9062 43.7812 28.8177 43.5104 28.6406 43.3125C28.474 43.1042 28.1615 43 27.7031 43H26.0156C24.5781 43 23.276 42.7656 22.1094 42.2969C20.9531 41.8281 20 41.1823 19.25 40.3594C18.5104 39.5365 17.9427 38.5833 17.5469 37.5C17.151 36.4167 16.9531 35.25 16.9531 34C16.9531 33 17.0938 32.0521 17.375 31.1562C17.6562 30.2604 18.0781 29.4375 18.6406 28.6875C19.2135 27.9375 19.8958 27.2917 20.6875 26.75C21.4896 26.1979 22.4375 25.7708 23.5312 25.4688C24.6354 25.1562 25.8281 25 27.1094 25C29.1198 25 31 25.3073 32.75 25.9219C34.5 26.526 35.9583 27.375 37.125 28.4688L36.2188 29.1406C35.1562 28.1823 33.8281 27.4427 32.2344 26.9219C30.6406 26.3906 28.9323 26.125 27.1094 26.125C25.6823 26.125 24.3906 26.3333 23.2344 26.75C22.0885 27.1562 21.1406 27.7188 20.3906 28.4375C19.651 29.1562 19.0781 29.9896 18.6719 30.9375C18.276 31.8854 18.0781 32.9062 18.0781 34C18.0781 35.4688 18.375 36.7917 18.9688 37.9688C19.5625 39.1458 20.4688 40.0938 21.6875 40.8125C22.9062 41.5208 24.349 41.875 26.0156 41.875ZM64.0469 26.125H65.1719V52H64.0469V26.125ZM39.2969 26.125H40.4219V52H39.2969V26.125ZM61.7969 26.125H62.9219V52H61.7969V26.125ZM59.5469 26.125H60.6719V52H59.5469V26.125ZM57.2969 26.125H58.4219V52H57.2969V41.8594H47.1719V52H46.0469V26.125H47.1719V36.2344H57.2969V26.125ZM43.7969 26.125H44.9219V52H43.7969V26.125ZM41.5469 26.125H42.6719V52H41.5469V26.125ZM57.2969 40.7344V39.6094H47.1719V40.7344H57.2969ZM57.2969 38.4844V37.3594H47.1719V38.4844H57.2969ZM77.25 34.6875C76.0417 35.8958 75.4375 37.3542 75.4375 39.0625C75.4375 40.7708 76.0417 42.2292 77.25 43.4375C78.4583 44.6458 79.9167 45.25 81.625 45.25C83.3333 45.25 84.7917 44.6458 86 43.4375C87.2083 42.2292 87.8125 40.7708 87.8125 39.0625C87.8125 37.3542 87.2083 35.8958 86 34.6875C84.7917 33.4792 83.3333 32.875 81.625 32.875C79.9167 32.875 78.4583 33.4792 77.25 34.6875ZM74.8906 41.9062C74.5052 41 74.3125 40.0521 74.3125 39.0625C74.3125 38.0729 74.5052 37.1302 74.8906 36.2344C75.276 35.3281 75.7969 34.5469 76.4531 33.8906C77.1094 33.2344 77.8854 32.7135 78.7812 32.3281C79.6875 31.9427 80.6354 31.75 81.625 31.75C82.6146 31.75 83.5573 31.9427 84.4531 32.3281C85.3594 32.7135 86.1406 33.2344 86.7969 33.8906C87.4531 34.5469 87.974 35.3281 88.3594 36.2344C88.7448 37.1302 88.9375 38.0729 88.9375 39.0625C88.9375 40.0521 88.7448 41 88.3594 41.9062C87.974 42.8021 87.4531 43.5781 86.7969 44.2344C86.1406 44.8906 85.3594 45.4115 84.4531 45.7969C83.5573 46.1823 82.6146 46.375 81.625 46.375C80.6354 46.375 79.6875 46.1823 78.7812 45.7969C77.8854 45.4115 77.1094 44.8906 76.4531 44.2344C75.7969 43.5781 75.276 42.8021 74.8906 41.9062ZM74.3125 34.8281C73.5625 36.1198 73.1875 37.5312 73.1875 39.0625C73.1875 40.5938 73.5625 42.0052 74.3125 43.2969C75.0729 44.5885 76.099 45.6146 77.3906 46.375C78.6823 47.125 80.0938 47.5 81.625 47.5C83.1562 47.5 84.5677 47.125 85.8594 46.375C87.151 45.6146 88.1719 44.5885 88.9219 43.2969C89.6823 42.0052 90.0625 40.5938 90.0625 39.0625C90.0625 37.5312 89.6823 36.1198 88.9219 34.8281C88.1719 33.5365 87.151 32.5156 85.8594 31.7656C84.5677 31.0052 83.1562 30.625 81.625 30.625C80.0938 30.625 78.6823 31.0052 77.3906 31.7656C76.099 32.5156 75.0729 33.5365 74.3125 34.8281ZM73.3438 43.8594C72.4896 42.3906 72.0625 40.7917 72.0625 39.0625C72.0625 37.3333 72.4896 35.7344 73.3438 34.2656C74.1979 32.7969 75.3594 31.6354 76.8281 30.7812C78.2969 29.9271 79.8958 29.5 81.625 29.5C83.3542 29.5 84.9531 29.9271 86.4219 30.7812C87.8906 31.6354 89.0521 32.7969 89.9062 34.2656C90.7604 35.7344 91.1875 37.3333 91.1875 39.0625C91.1875 40.7917 90.7604 42.3906 89.9062 43.8594C89.0521 45.3281 87.8906 46.4896 86.4219 47.3438C84.9531 48.1979 83.3542 48.625 81.625 48.625C79.8958 48.625 78.2969 48.1979 76.8281 47.3438C75.3594 46.4896 74.1979 45.3281 73.3438 43.8594ZM71.7812 34.9062C71.2188 36.2292 70.9375 37.6146 70.9375 39.0625C70.9375 40.5104 71.2188 41.8958 71.7812 43.2188C72.3438 44.5417 73.099 45.6823 74.0469 46.6406C75.0052 47.5885 76.1458 48.3438 77.4688 48.9062C78.7917 49.4688 80.1771 49.75 81.625 49.75C83.0729 49.75 84.4583 49.4688 85.7812 48.9062C87.1042 48.3438 88.2396 47.5885 89.1875 46.6406C90.1458 45.6823 90.9062 44.5417 91.4688 43.2188C92.0312 41.8958 92.3125 40.5104 92.3125 39.0625C92.3125 37.6146 92.0312 36.2292 91.4688 34.9062C90.9062 33.5833 90.1458 32.4479 89.1875 31.5C88.2396 30.5417 87.1042 29.7812 85.7812 29.2188C84.4583 28.6562 83.0729 28.375 81.625 28.375C80.1771 28.375 78.7917 28.6562 77.4688 29.2188C76.1458 29.7812 75.0052 30.5417 74.0469 31.5C73.099 32.4479 72.3438 33.5833 71.7812 34.9062ZM71.3906 44.9844C70.3385 43.1719 69.8125 41.1979 69.8125 39.0625C69.8125 36.9271 70.3385 34.9531 71.3906 33.1406C72.4531 31.3281 73.8906 29.8958 75.7031 28.8438C77.5156 27.7812 79.4896 27.25 81.625 27.25C83.7604 27.25 85.7344 27.7812 87.5469 28.8438C89.3594 29.8958 90.7917 31.3281 91.8438 33.1406C92.9062 34.9531 93.4375 36.9271 93.4375 39.0625C93.4375 41.1979 92.9062 43.1719 91.8438 44.9844C90.7917 46.7969 89.3594 48.2344 87.5469 49.2969C85.7344 50.349 83.7604 50.875 81.625 50.875C79.4896 50.875 77.5156 50.349 75.7031 49.2969C73.8906 48.2344 72.4531 46.7969 71.3906 44.9844ZM69.7031 34.0469C69.026 35.6406 68.6875 37.3125 68.6875 39.0625C68.6875 40.8125 69.026 42.4896 69.7031 44.0938C70.3906 45.6875 71.3125 47.0625 72.4688 48.2188C73.625 49.375 75 50.2969 76.5938 50.9844C78.1979 51.6615 79.875 52 81.625 52C83.375 52 85.0469 51.6615 86.6406 50.9844C88.2448 50.2969 89.625 49.375 90.7812 48.2188C91.9375 47.0625 92.8542 45.6875 93.5312 44.0938C94.2188 42.4896 94.5625 40.8125 94.5625 39.0625C94.5625 37.3125 94.2188 35.6406 93.5312 34.0469C92.8542 32.4427 91.9375 31.0625 90.7812 29.9062C89.625 28.75 88.2448 27.8333 86.6406 27.1562C85.0469 26.4688 83.375 26.125 81.625 26.125C79.875 26.125 78.1979 26.4688 76.5938 27.1562C75 27.8333 73.625 28.75 72.4688 29.9062C71.3125 31.0625 70.3906 32.4427 69.7031 34.0469ZM68.6719 44.5312C67.9323 42.7917 67.5625 40.9688 67.5625 39.0625C67.5625 37.1562 67.9323 35.3385 68.6719 33.6094C69.4219 31.8698 70.4219 30.375 71.6719 29.125C72.9323 27.8646 74.4271 26.8646 76.1562 26.125C77.8958 25.375 79.7188 25 81.625 25C83.5312 25 85.349 25.375 87.0781 26.125C88.8177 26.8646 90.3125 27.8646 91.5625 29.125C92.8229 30.375 93.8229 31.8698 94.5625 33.6094C95.3125 35.3385 95.6875 37.1562 95.6875 39.0625C95.6875 40.9688 95.3125 42.7917 94.5625 44.5312C93.8229 46.2604 92.8229 47.7552 91.5625 49.0156C90.3125 50.2656 88.8177 51.2604 87.0781 52C85.349 52.75 83.5312 53.125 81.625 53.125C79.7188 53.125 77.8958 52.75 76.1562 52C74.4271 51.2604 72.9323 50.2656 71.6719 49.0156C70.4219 47.7552 69.4219 46.2604 68.6719 44.5312ZM103.797 44.0469L103.266 46.2656L97.9219 26.125H99.0781L103.797 44.0469ZM104.969 39.7188L104.391 41.875L100.25 26.125H101.391L104.969 39.7188ZM106.141 35.2344L105.547 37.4219L102.562 26.125H103.734L106.141 35.2344ZM110.594 52H109.422L116.266 26.1562L116.25 26.125H117.438V26.1562L120.484 36.6562L123.281 26.125H124.453L117.594 52H116.422L113.359 41.5156L110.594 52ZM108.25 52H107.094L113.938 26.125H115.094L108.25 52ZM105.922 52H104.766L111.625 26.125H112.766L105.922 52ZM124.594 52H123.422L130.266 26.125H131.438L124.594 52ZM122.25 52H121.094L127.938 26.125H129.094L122.25 52ZM119.922 52H118.766L125.625 26.125H126.766L119.922 52ZM103.016 49.7812L109.281 26.125H110.453L103.594 52H102.422L95.5781 26.125H96.75L103.016 49.7812ZM113.953 39.3125L116.984 49.875L117.578 47.6406L114.531 37.1094L113.953 39.3125ZM115.109 34.9062L118.156 45.4375L118.75 43.2344L115.703 32.6875L115.109 34.9062ZM116.266 30.5312L119.328 41.0625L119.906 38.8438L116.875 28.2812L116.266 30.5312ZM155.672 42.5625L156.797 40.4375V52H155.672V42.5625ZM157.922 38.25L159.047 36.125V52H157.922V38.25ZM160.172 34L161.297 31.8594V52H160.172V34ZM152.625 42.0312L151.984 40.8594L159.734 26.125H161L152.625 42.0312ZM151.328 39.5781L150.672 38.3906L157.172 26.125H158.453L151.328 39.5781ZM143.797 40.5625L144.922 42.6875V52H143.797V40.5625ZM141.547 36.2812L142.672 38.4062V52H141.547V36.2812ZM139.297 32L140.422 34.1406V52H139.297V32ZM148.391 45.25H147.125L138.172 28.2656V52H137.047V26.125H138.312L148.391 45.25ZM150.938 45.25H149.656L139.594 26.125H140.875L150.938 45.25ZM162.422 28.2656L153.469 45.25H152.188L142.141 26.125H143.406L152.844 44.0625L162.266 26.125H163.547V52H162.422V28.2656ZM172.141 52H171.016V26.125H172.141V52ZM169.891 52H168.766V26.125H169.891V52ZM167.641 52H166.516V26.125H167.641V52ZM174.391 46.375H186.359V47.5H174.391V48.625H186.359V49.75H174.391V50.875H186.359V52H173.266V26.125H186.359V27.25H174.391V28.375H186.359V29.5H174.391V30.625H186.359V31.75H174.391V36.25H180.531V37.375H174.391V38.5H180.531V39.625H174.391V40.75H180.531V41.875H174.391V46.375Z" fill="#2B2B2B"/>
<path d="M110.648 66.184C110.253 66.184 109.875 66.12 109.512 65.992C109.16 65.864 108.856 65.672 108.6 65.416L109.128 64.568C109.341 64.7707 109.571 64.9253 109.816 65.032C110.072 65.1493 110.355 65.208 110.664 65.208C111.037 65.208 111.357 65.1013 111.624 64.888C111.901 64.6853 112.163 64.3227 112.408 63.8L112.952 62.568L113.08 62.392L116.536 54.6H117.656L113.448 64.008C113.213 64.552 112.952 64.984 112.664 65.304C112.387 65.624 112.083 65.848 111.752 65.976C111.421 66.1147 111.053 66.184 110.648 66.184ZM112.888 63.24L109.016 54.6H110.2L113.624 62.312L112.888 63.24ZM122.446 63.08C121.635 63.08 120.904 62.8987 120.254 62.536C119.614 62.1627 119.107 61.656 118.734 61.016C118.36 60.3653 118.174 59.624 118.174 58.792C118.174 57.9493 118.36 57.208 118.734 56.568C119.107 55.928 119.614 55.4267 120.254 55.064C120.894 54.7013 121.624 54.52 122.446 54.52C123.278 54.52 124.014 54.7013 124.654 55.064C125.304 55.4267 125.811 55.928 126.174 56.568C126.547 57.208 126.734 57.9493 126.734 58.792C126.734 59.624 126.547 60.3653 126.174 61.016C125.811 61.656 125.304 62.1627 124.654 62.536C124.003 62.8987 123.267 63.08 122.446 63.08ZM122.446 62.072C123.054 62.072 123.592 61.9387 124.062 61.672C124.531 61.3947 124.899 61.0107 125.166 60.52C125.443 60.0187 125.582 59.4427 125.582 58.792C125.582 58.1307 125.443 57.5547 125.166 57.064C124.899 56.5733 124.531 56.1947 124.062 55.928C123.592 55.6507 123.059 55.512 122.462 55.512C121.864 55.512 121.331 55.6507 120.862 55.928C120.392 56.1947 120.019 56.5733 119.742 57.064C119.464 57.5547 119.326 58.1307 119.326 58.792C119.326 59.4427 119.464 60.0187 119.742 60.52C120.019 61.0107 120.392 61.3947 120.862 61.672C121.331 61.9387 121.859 62.072 122.446 62.072ZM132.525 63.08C131.81 63.08 131.186 62.9467 130.653 62.68C130.119 62.4133 129.703 62.0133 129.405 61.48C129.117 60.9467 128.973 60.28 128.973 59.48V54.6H130.109V59.352C130.109 60.248 130.327 60.9253 130.765 61.384C131.213 61.832 131.837 62.056 132.637 62.056C133.223 62.056 133.73 61.9387 134.157 61.704C134.594 61.4587 134.925 61.1067 135.149 60.648C135.383 60.1893 135.501 59.64 135.501 59V54.6H136.637V63H135.549V60.696L135.725 61.112C135.458 61.7307 135.042 62.216 134.477 62.568C133.922 62.9093 133.271 63.08 132.525 63.08ZM139.803 63V54.6H140.891V56.888L140.779 56.488C141.013 55.848 141.408 55.3627 141.963 55.032C142.517 54.6907 143.205 54.52 144.027 54.52V55.624C143.984 55.624 143.941 55.624 143.899 55.624C143.856 55.6133 143.813 55.608 143.771 55.608C142.885 55.608 142.192 55.88 141.691 56.424C141.189 56.9573 140.939 57.72 140.939 58.712V63H139.803ZM152.668 63.08C151.975 63.08 151.319 62.984 150.7 62.792C150.081 62.5893 149.596 62.3387 149.244 62.04L149.756 61.144C150.097 61.4 150.535 61.624 151.068 61.816C151.601 61.9973 152.161 62.088 152.748 62.088C153.548 62.088 154.124 61.9653 154.476 61.72C154.828 61.464 155.004 61.128 155.004 60.712C155.004 60.4027 154.903 60.1627 154.7 59.992C154.508 59.8107 154.252 59.6773 153.932 59.592C153.612 59.496 153.255 59.416 152.86 59.352C152.465 59.288 152.071 59.2133 151.676 59.128C151.292 59.0427 150.94 58.92 150.62 58.76C150.3 58.5893 150.039 58.36 149.836 58.072C149.644 57.784 149.548 57.4 149.548 56.92C149.548 56.4613 149.676 56.0507 149.932 55.688C150.188 55.3253 150.561 55.0427 151.052 54.84C151.553 54.6267 152.161 54.52 152.876 54.52C153.42 54.52 153.964 54.5947 154.508 54.744C155.052 54.8827 155.5 55.0693 155.852 55.304L155.356 56.216C154.983 55.96 154.583 55.7787 154.156 55.672C153.729 55.5547 153.303 55.496 152.876 55.496C152.119 55.496 151.559 55.6293 151.196 55.896C150.844 56.152 150.668 56.4827 150.668 56.888C150.668 57.208 150.764 57.4587 150.956 57.64C151.159 57.8213 151.42 57.9653 151.74 58.072C152.071 58.168 152.428 58.248 152.812 58.312C153.207 58.376 153.596 58.456 153.98 58.552C154.375 58.6373 154.732 58.76 155.052 58.92C155.383 59.0693 155.644 59.288 155.836 59.576C156.039 59.8533 156.14 60.2213 156.14 60.68C156.14 61.1707 156.001 61.5973 155.724 61.96C155.457 62.312 155.063 62.5893 154.54 62.792C154.028 62.984 153.404 63.08 152.668 63.08ZM160.881 63.08C160.091 63.08 159.483 62.8667 159.057 62.44C158.63 62.0133 158.417 61.4107 158.417 60.632V52.744H159.553V60.568C159.553 61.0587 159.675 61.4373 159.921 61.704C160.177 61.9707 160.539 62.104 161.009 62.104C161.51 62.104 161.926 61.96 162.257 61.672L162.657 62.488C162.433 62.6907 162.161 62.84 161.841 62.936C161.531 63.032 161.211 63.08 160.881 63.08ZM156.913 55.544V54.6H162.113V55.544H156.913ZM164.632 66.184C164.238 66.184 163.859 66.12 163.496 65.992C163.144 65.864 162.84 65.672 162.584 65.416L163.112 64.568C163.326 64.7707 163.555 64.9253 163.8 65.032C164.056 65.1493 164.339 65.208 164.648 65.208C165.022 65.208 165.342 65.1013 165.608 64.888C165.886 64.6853 166.147 64.3227 166.392 63.8L166.936 62.568L167.064 62.392L170.52 54.6H171.64L167.432 64.008C167.198 64.552 166.936 64.984 166.648 65.304C166.371 65.624 166.067 65.848 165.736 65.976C165.406 66.1147 165.038 66.184 164.632 66.184ZM166.872 63.24L163 54.6H164.184L167.608 62.312L166.872 63.24ZM173.24 63V51.128H174.376V63H173.24ZM181.105 63.08C180.23 63.08 179.462 62.8987 178.801 62.536C178.14 62.1627 177.622 61.656 177.249 61.016C176.876 60.3653 176.689 59.624 176.689 58.792C176.689 57.96 176.865 57.224 177.217 56.584C177.58 55.944 178.07 55.4427 178.689 55.08C179.318 54.7067 180.022 54.52 180.801 54.52C181.59 54.52 182.289 54.7013 182.897 55.064C183.516 55.416 184.001 55.9173 184.353 56.568C184.705 57.208 184.881 57.9493 184.881 58.792C184.881 58.8453 184.876 58.904 184.865 58.968C184.865 59.0213 184.865 59.08 184.865 59.144H177.553V58.296H184.257L183.809 58.632C183.809 58.024 183.676 57.4853 183.409 57.016C183.153 56.536 182.801 56.1627 182.353 55.896C181.905 55.6293 181.388 55.496 180.801 55.496C180.225 55.496 179.708 55.6293 179.249 55.896C178.79 56.1627 178.433 56.536 178.177 57.016C177.921 57.496 177.793 58.0453 177.793 58.664V58.84C177.793 59.48 177.932 60.0453 178.209 60.536C178.497 61.016 178.892 61.3947 179.393 61.672C179.905 61.9387 180.486 62.072 181.137 62.072C181.649 62.072 182.124 61.9813 182.561 61.8C183.009 61.6187 183.393 61.3413 183.713 60.968L184.353 61.704C183.98 62.152 183.51 62.4933 182.945 62.728C182.39 62.9627 181.777 63.08 181.105 63.08Z" fill="#2B2B2B"/>
<mask id="mask0_7_145" style="mask-type:alpha" maskUnits="userSpaceOnUse" x="0" y="0" width="80" height="80">
<path d="M40 80C62.0914 80 80 62.0914 80 40C80 17.9086 62.0914 0 40 0C17.9086 0 0 17.9086 0 40C0 62.0914 17.9086 80 40 80Z" fill="#2B2B2B"/>
</mask>
<g mask="url(#mask0_7_145)">
<path d="M27.9062 36.25H26.0156C25.2135 36.25 24.6354 36.0469 24.2812 35.6406C23.9271 35.224 23.75 34.6771 23.75 34C23.75 32.5 24.8698 31.75 27.1094 31.75C29.2135 31.75 30.7969 32.0625 31.8594 32.6875L30.9531 33.375C30.224 33.0417 28.9427 32.875 27.1094 32.875C26.2135 32.875 25.6094 32.974 25.2969 33.1719C24.9948 33.3698 24.8438 33.6458 24.8438 34C24.8438 34.3542 24.9271 34.6302 25.0938 34.8281C25.2604 35.026 25.5677 35.125 26.0156 35.125H27.9531C29.3594 35.125 30.625 35.3646 31.75 35.8438C32.8854 36.3229 33.8177 36.9792 34.5469 37.8125C35.276 38.6354 35.8333 39.5885 36.2188 40.6719C36.6042 41.7448 36.7969 42.8958 36.7969 44.125C36.7969 45.125 36.6562 46.0729 36.375 46.9688C36.0938 47.8646 35.6667 48.6875 35.0938 49.4375C34.5312 50.1875 33.849 50.8385 33.0469 51.3906C32.2552 51.9323 31.3073 52.3542 30.2031 52.6562C29.1094 52.9688 27.9219 53.125 26.6406 53.125C24.6302 53.125 22.7448 52.8177 20.9844 52.2031C19.2344 51.599 17.776 50.75 16.6094 49.6562L17.5156 48.9844C18.5781 49.9427 19.9062 50.6875 21.5 51.2188C23.1042 51.7396 24.8177 52 26.6406 52C28.0677 52 29.3542 51.7969 30.5 51.3906C31.6562 50.974 32.6042 50.4062 33.3438 49.6875C34.0938 48.9688 34.6667 48.1354 35.0625 47.1875C35.4688 46.2396 35.6719 45.2188 35.6719 44.125C35.6719 42.6771 35.3802 41.3698 34.7969 40.2031C34.2135 39.026 33.3229 38.0729 32.125 37.3438C30.9375 36.6146 29.5312 36.25 27.9062 36.25ZM26.0156 37.375H27.7969C29.9115 37.375 31.5625 38.0208 32.75 39.3125C33.9479 40.6042 34.5469 42.2083 34.5469 44.125C34.5469 46.0729 33.8542 47.6875 32.4688 48.9688C31.0833 50.2396 29.1406 50.875 26.6406 50.875C24.974 50.875 23.4167 50.6458 21.9688 50.1875C20.5208 49.7292 19.3177 49.0833 18.3594 48.25L19.2344 47.5469C20.0885 48.2448 21.1615 48.7865 22.4531 49.1719C23.7552 49.5573 25.151 49.75 26.6406 49.75C28.8385 49.75 30.5156 49.224 31.6719 48.1719C32.8385 47.1198 33.4219 45.7708 33.4219 44.125C33.4219 42.5 32.9323 41.1562 31.9531 40.0938C30.9844 39.0312 29.5938 38.5 27.7812 38.5H26.0156C24.4948 38.5 23.3542 38.0833 22.5938 37.25C21.8333 36.4167 21.4531 35.3333 21.4531 34C21.4531 32.6667 21.9219 31.5833 22.8594 30.75C23.8073 29.9167 25.224 29.5 27.1094 29.5C28.4323 29.5 29.6615 29.6562 30.7969 29.9688C31.9323 30.2708 32.8698 30.7083 33.6094 31.2812L32.7188 31.9688C31.4167 31.0729 29.5469 30.625 27.1094 30.625C25.5365 30.625 24.3854 30.9375 23.6562 31.5625C22.9375 32.1771 22.5781 32.9896 22.5781 34C22.5781 35.0208 22.8438 35.8385 23.375 36.4531C23.9167 37.0677 24.7969 37.375 26.0156 37.375ZM26.0156 39.625H27.7344C29.2552 39.625 30.3958 40.0469 31.1562 40.8906C31.9167 41.7344 32.2969 42.8125 32.2969 44.125C32.2969 45.4583 31.8229 46.5417 30.875 47.375C29.9375 48.2083 28.526 48.625 26.6406 48.625C25.3177 48.625 24.0833 48.474 22.9375 48.1719C21.8021 47.8594 20.8646 47.4167 20.125 46.8438L21.0156 46.1562C22.3177 47.0521 24.1927 47.5 26.6406 47.5C28.2135 47.5 29.3594 47.1927 30.0781 46.5781C30.8073 45.9531 31.1719 45.1354 31.1719 44.125C31.1719 43.1146 30.901 42.3021 30.3594 41.6875C29.8177 41.0625 28.9375 40.75 27.7188 40.75H26.0156C23.8802 40.75 22.2083 40.1146 21 38.8438C19.8021 37.5625 19.2031 35.9479 19.2031 34C19.2031 32.0521 19.8958 30.4427 21.2812 29.1719C22.6667 27.8906 24.6094 27.25 27.1094 27.25C28.776 27.25 30.3281 27.4792 31.7656 27.9375C33.2135 28.3958 34.4167 29.0417 35.375 29.875L34.5 30.5781C33.6458 29.8802 32.5729 29.3385 31.2812 28.9531C29.9896 28.5677 28.599 28.375 27.1094 28.375C24.9115 28.375 23.2292 28.901 22.0625 29.9531C20.9062 31.0052 20.3281 32.3542 20.3281 34C20.3281 35.6354 20.8177 36.9844 21.7969 38.0469C22.776 39.099 24.1823 39.625 26.0156 39.625ZM26.0156 41.875H27.7344C28.5365 41.875 29.1146 42.0833 29.4688 42.5C29.8229 42.9167 30 43.4583 30 44.125C30 45.625 28.8802 46.375 26.6406 46.375C24.526 46.375 22.9375 46.0625 21.875 45.4375L22.7812 44.75C23.5104 45.0833 24.7969 45.25 26.6406 45.25C27.5365 45.25 28.1354 45.151 28.4375 44.9531C28.75 44.7552 28.9062 44.4792 28.9062 44.125C28.9062 43.7812 28.8177 43.5104 28.6406 43.3125C28.474 43.1042 28.1615 43 27.7031 43H26.0156C24.5781 43 23.276 42.7656 22.1094 42.2969C20.9531 41.8281 20 41.1823 19.25 40.3594C18.5104 39.5365 17.9427 38.5833 17.5469 37.5C17.151 36.4167 16.9531 35.25 16.9531 34C16.9531 33 17.0938 32.0521 17.375 31.1562C17.6562 30.2604 18.0781 29.4375 18.6406 28.6875C19.2135 27.9375 19.8958 27.2917 20.6875 26.75C21.4896 26.1979 22.4375 25.7708 23.5312 25.4688C24.6354 25.1562 25.8281 25 27.1094 25C29.1198 25 31 25.3073 32.75 25.9219C34.5 26.526 35.9583 27.375 37.125 28.4688L36.2188 29.1406C35.1562 28.1823 33.8281 27.4427 32.2344 26.9219C30.6406 26.3906 28.9323 26.125 27.1094 26.125C25.6823 26.125 24.3906 26.3333 23.2344 26.75C22.0885 27.1562 21.1406 27.7188 20.3906 28.4375C19.651 29.1562 19.0781 29.9896 18.6719 30.9375C18.276 31.8854 18.0781 32.9062 18.0781 34C18.0781 35.4688 18.375 36.7917 18.9688 37.9688C19.5625 39.1458 20.4688 40.0938 21.6875 40.8125C22.9062 41.5208 24.349 41.875 26.0156 41.875ZM64.0469 26.125H65.1719V52H64.0469V26.125ZM39.2969 26.125H40.4219V52H39.2969V26.125ZM61.7969 26.125H62.9219V52H61.7969V26.125ZM59.5469 26.125H60.6719V52H59.5469V26.125ZM57.2969 26.125H58.4219V52H57.2969V41.8594H47.1719V52H46.0469V26.125H47.1719V36.2344H57.2969V26.125ZM43.7969 26.125H44.9219V52H43.7969V26.125ZM41.5469 26.125H42.6719V52H41.5469V26.125ZM57.2969 40.7344V39.6094H47.1719V40.7344H57.2969ZM57.2969 38.4844V37.3594H47.1719V38.4844H57.2969ZM77.25 34.6875C76.0417 35.8958 75.4375 37.3542 75.4375 39.0625C75.4375 40.7708 76.0417 42.2292 77.25 43.4375C78.4583 44.6458 79.9167 45.25 81.625 45.25C83.3333 45.25 84.7917 44.6458 86 43.4375C87.2083 42.2292 87.8125 40.7708 87.8125 39.0625C87.8125 37.3542 87.2083 35.8958 86 34.6875C84.7917 33.4792 83.3333 32.875 81.625 32.875C79.9167 32.875 78.4583 33.4792 77.25 34.6875ZM74.8906 41.9062C74.5052 41 74.3125 40.0521 74.3125 39.0625C74.3125 38.0729 74.5052 37.1302 74.8906 36.2344C75.276 35.3281 75.7969 34.5469 76.4531 33.8906C77.1094 33.2344 77.8854 32.7135 78.7812 32.3281C79.6875 31.9427 80.6354 31.75 81.625 31.75C82.6146 31.75 83.5573 31.9427 84.4531 32.3281C85.3594 32.7135 86.1406 33.2344 86.7969 33.8906C87.4531 34.5469 87.974 35.3281 88.3594 36.2344C88.7448 37.1302 88.9375 38.0729 88.9375 39.0625C88.9375 40.0521 88.7448 41 88.3594 41.9062C87.974 42.8021 87.4531 43.5781 86.7969 44.2344C86.1406 44.8906 85.3594 45.4115 84.4531 45.7969C83.5573 46.1823 82.6146 46.375 81.625 46.375C80.6354 46.375 79.6875 46.1823 78.7812 45.7969C77.8854 45.4115 77.1094 44.8906 76.4531 44.2344C75.7969 43.5781 75.276 42.8021 74.8906 41.9062ZM74.3125 34.8281C73.5625 36.1198 73.1875 37.5312 73.1875 39.0625C73.1875 40.5938 73.5625 42.0052 74.3125 43.2969C75.0729 44.5885 76.099 45.6146 77.3906 46.375C78.6823 47.125 80.0938 47.5 81.625 47.5C83.1562 47.5 84.5677 47.125 85.8594 46.375C87.151 45.6146 88.1719 44.5885 88.9219 43.2969C89.6823 42.0052 90.0625 40.5938 90.0625 39.0625C90.0625 37.5312 89.6823 36.1198 88.9219 34.8281C88.1719 33.5365 87.151 32.5156 85.8594 31.7656C84.5677 31.0052 83.1562 30.625 81.625 30.625C80.0938 30.625 78.6823 31.0052 77.3906 31.7656C76.099 32.5156 75.0729 33.5365 74.3125 34.8281ZM73.3438 43.8594C72.4896 42.3906 72.0625 40.7917 72.0625 39.0625C72.0625 37.3333 72.4896 35.7344 73.3438 34.2656C74.1979 32.7969 75.3594 31.6354 76.8281 30.7812C78.2969 29.9271 79.8958 29.5 81.625 29.5C83.3542 29.5 84.9531 29.9271 86.4219 30.7812C87.8906 31.6354 89.0521 32.7969 89.9062 34.2656C90.7604 35.7344 91.1875 37.3333 91.1875 39.0625C91.1875 40.7917 90.7604 42.3906 89.9062 43.8594C89.0521 45.3281 87.8906 46.4896 86.4219 47.3438C84.9531 48.1979 83.3542 48.625 81.625 48.625C79.8958 48.625 78.2969 48.1979 76.8281 47.3438C75.3594 46.4896 74.1979 45.3281 73.3438 43.8594ZM71.7812 34.9062C71.2188 36.2292 70.9375 37.6146 70.9375 39.0625C70.9375 40.5104 71.2188 41.8958 71.7812 43.2188C72.3438 44.5417 73.099 45.6823 74.0469 46.6406C75.0052 47.5885 76.1458 48.3438 77.4688 48.9062C78.7917 49.4688 80.1771 49.75 81.625 49.75C83.0729 49.75 84.4583 49.4688 85.7812 48.9062C87.1042 48.3438 88.2396 47.5885 89.1875 46.6406C90.1458 45.6823 90.9062 44.5417 91.4688 43.2188C92.0312 41.8958 92.3125 40.5104 92.3125 39.0625C92.3125 37.6146 92.0312 36.2292 91.4688 34.9062C90.9062 33.5833 90.1458 32.4479 89.1875 31.5C88.2396 30.5417 87.1042 29.7812 85.7812 29.2188C84.4583 28.6562 83.0729 28.375 81.625 28.375C80.1771 28.375 78.7917 28.6562 77.4688 29.2188C76.1458 29.7812 75.0052 30.5417 74.0469 31.5C73.099 32.4479 72.3438 33.5833 71.7812 34.9062ZM71.3906 44.9844C70.3385 43.1719 69.8125 41.1979 69.8125 39.0625C69.8125 36.9271 70.3385 34.9531 71.3906 33.1406C72.4531 31.3281 73.8906 29.8958 75.7031 28.8438C77.5156 27.7812 79.4896 27.25 81.625 27.25C83.7604 27.25 85.7344 27.7812 87.5469 28.8438C89.3594 29.8958 90.7917 31.3281 91.8438 33.1406C92.9062 34.9531 93.4375 36.9271 93.4375 39.0625C93.4375 41.1979 92.9062 43.1719 91.8438 44.9844C90.7917 46.7969 89.3594 48.2344 87.5469 49.2969C85.7344 50.349 83.7604 50.875 81.625 50.875C79.4896 50.875 77.5156 50.349 75.7031 49.2969C73.8906 48.2344 72.4531 46.7969 71.3906 44.9844ZM69.7031 34.0469C69.026 35.6406 68.6875 37.3125 68.6875 39.0625C68.6875 40.8125 69.026 42.4896 69.7031 44.0938C70.3906 45.6875 71.3125 47.0625 72.4688 48.2188C73.625 49.375 75 50.2969 76.5938 50.9844C78.1979 51.6615 79.875 52 81.625 52C83.375 52 85.0469 51.6615 86.6406 50.9844C88.2448 50.2969 89.625 49.375 90.7812 48.2188C91.9375 47.0625 92.8542 45.6875 93.5312 44.0938C94.2188 42.4896 94.5625 40.8125 94.5625 39.0625C94.5625 37.3125 94.2188 35.6406 93.5312 34.0469C92.8542 32.4427 91.9375 31.0625 90.7812 29.9062C89.625 28.75 88.2448 27.8333 86.6406 27.1562C85.0469 26.4688 83.375 26.125 81.625 26.125C79.875 26.125 78.1979 26.4688 76.5938 27.1562C75 27.8333 73.625 28.75 72.4688 29.9062C71.3125 31.0625 70.3906 32.4427 69.7031 34.0469ZM68.6719 44.5312C67.9323 42.7917 67.5625 40.9688 67.5625 39.0625C67.5625 37.1562 67.9323 35.3385 68.6719 33.6094C69.4219 31.8698 70.4219 30.375 71.6719 29.125C72.9323 27.8646 74.4271 26.8646 76.1562 26.125C77.8958 25.375 79.7188 25 81.625 25C83.5312 25 85.349 25.375 87.0781 26.125C88.8177 26.8646 90.3125 27.8646 91.5625 29.125C92.8229 30.375 93.8229 31.8698 94.5625 33.6094C95.3125 35.3385 95.6875 37.1562 95.6875 39.0625C95.6875 40.9688 95.3125 42.7917 94.5625 44.5312C93.8229 46.2604 92.8229 47.7552 91.5625 49.0156C90.3125 50.2656 88.8177 51.2604 87.0781 52C85.349 52.75 83.5312 53.125 81.625 53.125C79.7188 53.125 77.8958 52.75 76.1562 52C74.4271 51.2604 72.9323 50.2656 71.6719 49.0156C70.4219 47.7552 69.4219 46.2604 68.6719 44.5312ZM103.797 44.0469L103.266 46.2656L97.9219 26.125H99.0781L103.797 44.0469ZM104.969 39.7188L104.391 41.875L100.25 26.125H101.391L104.969 39.7188ZM106.141 35.2344L105.547 37.4219L102.562 26.125H103.734L106.141 35.2344ZM110.594 52H109.422L116.266 26.1562L116.25 26.125H117.438V26.1562L120.484 36.6562L123.281 26.125H124.453L117.594 52H116.422L113.359 41.5156L110.594 52ZM108.25 52H107.094L113.938 26.125H115.094L108.25 52ZM105.922 52H104.766L111.625 26.125H112.766L105.922 52ZM124.594 52H123.422L130.266 26.125H131.438L124.594 52ZM122.25 52H121.094L127.938 26.125H129.094L122.25 52ZM119.922 52H118.766L125.625 26.125H126.766L119.922 52ZM103.016 49.7812L109.281 26.125H110.453L103.594 52H102.422L95.5781 26.125H96.75L103.016 49.7812ZM113.953 39.3125L116.984 49.875L117.578 47.6406L114.531 37.1094L113.953 39.3125ZM115.109 34.9062L118.156 45.4375L118.75 43.2344L115.703 32.6875L115.109 34.9062ZM116.266 30.5312L119.328 41.0625L119.906 38.8438L116.875 28.2812L116.266 30.5312ZM155.672 42.5625L156.797 40.4375V52H155.672V42.5625ZM157.922 38.25L159.047 36.125V52H157.922V38.25ZM160.172 34L161.297 31.8594V52H160.172V34ZM152.625 42.0312L151.984 40.8594L159.734 26.125H161L152.625 42.0312ZM151.328 39.5781L150.672 38.3906L157.172 26.125H158.453L151.328 39.5781ZM143.797 40.5625L144.922 42.6875V52H143.797V40.5625ZM141.547 36.2812L142.672 38.4062V52H141.547V36.2812ZM139.297 32L140.422 34.1406V52H139.297V32ZM148.391 45.25H147.125L138.172 28.2656V52H137.047V26.125H138.312L148.391 45.25ZM150.938 45.25H149.656L139.594 26.125H140.875L150.938 45.25ZM162.422 28.2656L153.469 45.25H152.188L142.141 26.125H143.406L152.844 44.0625L162.266 26.125H163.547V52H162.422V28.2656ZM172.141 52H171.016V26.125H172.141V52ZM169.891 52H168.766V26.125H169.891V52ZM167.641 52H166.516V26.125H167.641V52ZM174.391 46.375H186.359V47.5H174.391V48.625H186.359V49.75H174.391V50.875H186.359V52H173.266V26.125H186.359V27.25H174.391V28.375H186.359V29.5H174.391V30.625H186.359V31.75H174.391V36.25H180.531V37.375H174.391V38.5H180.531V39.625H174.391V40.75H180.531V41.875H174.391V46.375Z" fill="white"/>
</g>
</svg>
