<svg width="1151" height="2841" viewBox="0 0 1151 2841" fill="none"
    xmlns="http://www.w3.org/2000/svg">
    <path
        d="M584 882.5C582.533 885.033 581 1160.67 579.8 1256.67C579 1320.8 577.667 1412.93 577 1461.33C576.333 1509.73 575.133 1595.47 574.333 1652C573.533 1708.4 572.333 1793.07 571.667 1840C570.867 1886.93 570.333 1934.53 570.333 1945.73V1966.13L564.2 1968.93C560.733 1970.4 553.4 1972.13 547.8 1972.8C542.2 1973.33 536.2 1974 534.333 1974.27C531.4 1974.67 530.867 1974 529.8 1968.8C528.733 1963.73 529 1962.13 531.533 1957.2C533.267 1954.13 534.2 1950.93 533.667 1950.13C532.067 1947.33 526.333 1948.67 522.067 1952.67C519.533 1955.2 516.6 1956.67 514.2 1956.67C509 1956.67 507.667 1959.87 507.667 1971.73V1981.6L519 1993.87C527.933 2003.6 530.333 2007.07 530.333 2010.13C530.333 2017.47 527 2016.13 513 2003.33C502.2 1993.33 499.533 1990.13 498.867 1986.13C498.333 1983.47 496.467 1980 494.867 1978.4C492.6 1976.4 491.667 1974 491.667 1970.8C491.667 1967.33 490.867 1965.73 488.733 1964.53C484.6 1962.4 483.667 1960.8 483.667 1955.73C483.667 1952.53 482.733 1950.8 480.333 1949.2C477.667 1947.47 477 1945.87 477 1941.47C477 1936.8 476.467 1935.73 473 1933.73C469.667 1931.87 469 1930.67 469 1926.27C469 1922.53 468.067 1920.27 465.667 1918C463.8 1916.27 461.933 1912.93 461.533 1910.4C461 1907.87 457.4 1899.47 453.533 1891.6C449.533 1883.73 446.333 1876.13 446.333 1874.53C446.333 1871.73 436.467 1858 434.467 1858C433.8 1858 431.267 1854.53 428.467 1850.4C424.733 1844.4 423.667 1841.33 423.667 1836.53C423.667 1832.13 422.867 1829.73 421 1828C417.8 1825.2 415.667 1818.13 415.667 1810.53C415.667 1806.4 414.6 1803.73 411.667 1800C407.933 1795.33 407.667 1794.13 407.667 1783.87C407.667 1774.13 407.267 1772.4 404.733 1770C401.933 1767.47 401.667 1765.73 401.267 1752.53C400.867 1739.87 400.333 1737.2 397.667 1733.33C395.667 1730.27 394.333 1725.87 393.8 1719.47C393 1711.47 392.2 1709.47 388.867 1706.13C385.8 1703.07 385 1701.07 385 1696.4C385 1693.2 383.667 1687.73 381.8 1684C379.133 1678.13 378.6 1674.27 377.667 1653.33C376.333 1624.53 376.333 1581.2 377.667 1552.4C378.6 1533.2 378.467 1531.33 376.333 1530.53C373.533 1529.33 372.2 1531.47 371 1538.67C370.6 1541.73 368.867 1546.27 367.133 1548.53L363.933 1552.8L364.6 1614.4C365.267 1673.2 365.4 1676.27 368.067 1680.53C370.067 1683.73 370.867 1688.13 371.4 1697.33C371.933 1708.67 371.8 1710 368.867 1713.87L365.8 1718L368.6 1720.93C370.467 1723.07 371.533 1726.4 371.933 1731.73C372.333 1737.33 373.4 1740.27 375.667 1742.67C377.933 1745.07 379.133 1748.4 379.8 1754.13C380.333 1759.2 381.667 1763.33 383.4 1765.07C384.867 1766.8 386.333 1770.67 386.733 1774.4C387 1777.87 388.733 1782.93 390.6 1785.73C392.467 1788.4 394.333 1793.6 394.733 1797.2C395.267 1801.2 396.867 1805.07 398.467 1806.8C400.6 1809.07 401.533 1812.4 402.333 1820C403.133 1827.87 404.067 1830.8 406.467 1833.47C408.867 1836 409.667 1838.67 410.067 1845.33C410.467 1851.47 411.267 1854.53 413.133 1856.13C416.6 1859.2 416.333 1863.07 412.333 1866.8C410.467 1868.53 409 1870.93 409 1872.27C409 1876.93 418.2 1892.8 424.6 1899.07C434.867 1909.2 439.667 1915.33 439.667 1918.8C439.667 1920.67 441.267 1923.47 443.667 1925.6C445.933 1927.47 447.667 1930 447.667 1931.07C447.667 1933.33 455.8 1946 458.867 1948.53C460.067 1949.6 461.667 1952.67 462.333 1955.47C463.133 1958.27 464.867 1961.73 466.067 1962.93C469.133 1966 477 1978.4 477 1980.27C477 1981.07 478.867 1983.87 481 1986.67C483.267 1989.47 485 1993.07 485 1994.67C485 1996.27 486.733 1999.2 489 2001.07C493.4 2005.07 493.133 2007.33 488.2 2010.67C484.733 2012.93 484.067 2018 486.333 2025.73C487.4 2029.73 487.267 2030.13 485.267 2029.33C484.067 2028.8 480.067 2027.2 476.467 2025.73C472.733 2024.27 468.333 2022 466.467 2020.67C464.6 2019.33 460.733 2017.73 458.067 2016.93C455.267 2016.13 451.4 2014.4 449.4 2012.93C447.4 2011.6 443.933 2010 441.667 2009.47C439.533 2008.93 435.533 2007.2 433 2005.6C426.2 2001.33 421.133 1998.4 414.6 1995.2C411.4 1993.73 408.467 1991.6 408.067 1990.53C407.667 1989.47 404.733 1988 401.533 1987.2C398.333 1986.4 395.667 1985.2 395.667 1984.67C395.667 1983.07 380.733 1972.67 378.6 1972.67C377.533 1972.67 371.133 1967.2 364.333 1960.67L351.933 1948.67H343.8C336.2 1948.67 335.133 1948.27 327.667 1942.53C323.267 1939.2 317.667 1934 315 1930.93C292.2 1903.6 287.667 1897.47 287.667 1894C287.667 1892.67 286.2 1890.4 284.467 1888.93C282.733 1887.6 280.2 1884.4 279.133 1881.87C275 1873.33 271 1867.33 267.933 1865.2C266.067 1863.87 265 1861.87 265 1859.33C265 1857.07 263.533 1853.6 261.4 1851.07C257.267 1846.13 255.667 1843.73 251.533 1836C249.933 1833.07 247.267 1828.93 245.533 1826.93C243.8 1824.8 242.333 1821.47 242.333 1819.6C242.333 1816.93 240.6 1814.53 236.067 1810.67C232.6 1807.73 226.067 1801.47 221.4 1796.67C214.733 1789.73 212.867 1786.93 212.2 1782.53C211.667 1778.53 210.467 1776.53 208.2 1775.2C205.667 1773.87 205 1772.53 205 1768.53C205 1764.4 204.2 1762.8 201 1760.4C197.933 1758.13 197 1756.53 197 1752.8C197 1749.6 195.933 1747.07 193.4 1744.4C190.6 1741.47 189.8 1739.07 189.267 1733.07C188.733 1726.67 188.067 1724.67 184.867 1721.73C181.667 1718.67 181 1717.07 181 1711.47C181 1706.53 180.2 1704 177.8 1701.07C175.8 1698.53 174.467 1695.07 174.067 1690.27C173.533 1685.33 172.467 1682.27 170.333 1680C167.8 1677.33 167 1674.53 166.333 1666.27C165.8 1659.07 164.733 1654.67 162.6 1651.33C160.333 1647.73 159.667 1644.67 159.667 1637.87C159.667 1630.53 158.867 1627.6 154.333 1618.27C151.533 1612.27 148.6 1607.33 147.8 1607.33C143.267 1607.33 144.467 1625.2 150.467 1648.8C152.067 1655.07 153 1663.47 153 1670.8C153 1681.47 153.4 1683.2 156.6 1688C159.133 1691.6 160.333 1695.47 160.733 1700.67C161.133 1705.6 162.2 1708.93 164.067 1711.07C166.067 1713.2 167.133 1716.67 167.8 1722.67C168.467 1729.07 169.533 1732.27 172.2 1735.33C174.733 1738.4 175.667 1741.07 175.667 1745.07C175.667 1748.8 176.733 1752.27 178.867 1755.33C180.6 1757.87 182.467 1762.53 182.867 1765.47C183.4 1768.67 185.267 1772.27 187.133 1774.13C189.267 1776.13 190.333 1778.53 190.333 1781.73C190.333 1784.93 191.4 1787.33 193.933 1789.87C200.6 1796.53 205 1805.2 205 1811.73C205 1821.07 206.467 1826.27 209.267 1827.07C210.6 1827.33 212.067 1829.2 212.467 1831.2C212.867 1833.07 213.4 1835.87 213.667 1837.33C214.067 1838.8 222.067 1847.73 231.667 1857.33C244.6 1870.27 250.467 1877.2 254.467 1884.4C257.533 1889.87 260.733 1894.53 261.8 1894.93C262.733 1895.33 266.333 1900.53 269.533 1906.4C272.867 1912.4 276.6 1918 278.067 1918.93C279.533 1919.73 281.133 1922.13 281.533 1924.27C282.067 1926.27 283.8 1930.13 285.533 1932.67C293.533 1945.07 295.4 1948.4 296.2 1952.13C297.667 1958.53 302.2 1964.93 315.667 1979.2C327 1991.2 328.867 1992.67 334.067 1993.47C337.267 1994 341.4 1995.6 343.4 1997.33C346.067 1999.47 349.533 2000.53 357 2001.2C365 2001.87 367.533 2002.67 370.333 2005.33C373.267 2008.13 375.133 2008.67 381.8 2008.67C388.6 2008.67 390.333 2009.2 393 2012C394.733 2013.87 398.2 2015.73 400.867 2016.13C403.533 2016.67 407.133 2018.4 409 2020C410.867 2021.6 414.467 2023.33 417.133 2023.87C419.8 2024.27 423.133 2026.13 424.733 2028C426.333 2029.87 429.133 2031.33 431 2031.33C433 2031.33 437.4 2034 442.733 2038.53C447.4 2042.4 452.6 2046.13 454.467 2046.67C458.733 2048 463.267 2051.6 473.4 2061.47C483.267 2070.93 487.8 2074.13 494.2 2076C497.933 2077.07 499.133 2078.13 499.4 2080.93C499.933 2085.6 498.067 2086 479.4 2085.6C465.933 2085.33 465 2085.47 461.667 2088.67C459.8 2090.4 456.333 2092.53 453.933 2093.33C450.467 2094.4 449.267 2095.87 447.933 2100.4C446.467 2104.8 445.267 2106.13 442.6 2106.8C436.6 2108 432.6 2110.13 430.6 2112.8C429.533 2114.4 427.267 2115.33 424.6 2115.33C421.4 2115.33 419.267 2116.4 416.733 2119.33C414.067 2122.4 412.067 2123.33 408.467 2123.33C405.133 2123.33 403.4 2124.13 402.333 2126C401.533 2127.47 398.867 2129.73 396.467 2131.07C384.867 2137.07 380.067 2140 376.6 2142.8C374.467 2144.53 371.4 2146 369.533 2146C367.667 2146 365.533 2147.33 364.2 2149.33C363 2151.2 359.8 2153.2 357 2154C354.333 2154.67 351 2156.53 349.667 2158C348.333 2159.47 346.6 2160.67 345.667 2160.67C344.733 2160.67 343 2162 341.533 2163.47C340.2 2165.07 336.733 2167.33 334.067 2168.53C327.933 2171.2 307 2189.07 304.067 2194.13C302.733 2196.27 301.133 2198 300.333 2198C299.533 2198 296.067 2199.73 292.6 2202L286.2 2206H243.4H200.467L195.533 2202.53C192.333 2200.27 188.067 2198.93 182.867 2198.4C178.2 2197.87 173.4 2196.4 170.733 2194.67C168.333 2192.93 164.2 2191.2 161.4 2190.67C158.733 2190.13 154.733 2188.27 152.6 2186.53C150.067 2184.4 147.133 2183.33 143.667 2183.33C139.8 2183.33 138.2 2182.53 136.6 2180.13C135.133 2178 132.6 2176.67 129 2176C125.667 2175.47 122.733 2173.87 121.133 2171.87C119.8 2170.13 118.067 2168.67 117.267 2168.67C116.6 2168.67 113.8 2166.8 111 2164.67C108.2 2162.4 105.133 2160.67 104.2 2160.67C103.267 2160.67 99.6667 2157.87 96.2 2154.53C92.7333 2151.2 87.5333 2147.33 84.4667 2145.73C81.4 2144.27 78.7333 2142.53 78.3333 2142.13C77.9333 2141.6 76.3333 2140.27 74.6 2139.07C72.8667 2137.87 57.5333 2123.2 40.6 2106.4C10.2 2076.27 4.86665 2071.73 2.33332 2073.33C-0.600018 2075.07 0.999982 2082.27 4.99998 2085.73C7.66665 2088 8.99998 2090.53 8.99998 2092.93C8.99998 2095.33 10.0666 2097.33 12.3333 2098.8C14.0667 2100 16.2 2102.93 16.8666 2105.33C18.2 2110.4 23 2117.07 31.4 2126C34.6 2129.33 38.2 2133.73 39.2667 2136C42.0667 2141.6 69.6667 2169.33 77.6667 2174.53C81.4 2176.93 86.7333 2181.33 89.5333 2184.13C92.4667 2186.93 96.3333 2190 98.2 2190.67C104.333 2193.2 110.867 2197.2 114.467 2200.93C116.6 2203.2 119.533 2204.67 121.533 2204.67C123.933 2204.67 127.4 2206.93 132.733 2211.87C136.867 2215.87 142.733 2220.93 145.667 2223.07L151 2226.93L187.8 2227.73C215.533 2228.4 225.8 2229.07 229.267 2230.53C231.933 2231.73 235.933 2232.27 238.467 2231.87C241 2231.47 246.6 2232.13 251 2233.2C257 2234.8 265.8 2235.33 287.533 2235.33C312.467 2235.33 316.467 2235.07 318.6 2233.07C321 2230.93 321.4 2230.93 324.867 2233.07C327 2234.27 329.4 2235.33 330.067 2235.33C332.333 2235.33 354.6 2209.07 357.133 2203.47C359.933 2197.07 370.467 2186.13 380.067 2179.6C390.067 2172.67 394.733 2169.07 403.533 2160.93C411.133 2154 424.467 2144.67 426.733 2144.67C427.4 2144.67 431.267 2141.33 435.4 2137.33L442.867 2130H457.4C470.733 2130 472.2 2129.73 476.2 2126.67C481.533 2122.67 484.467 2122.4 485.667 2126C486.467 2128.67 484.867 2132.93 481 2137.33C479.8 2138.8 476.6 2144 473.933 2148.8C471.267 2154 465 2162 459.133 2168C453.667 2173.6 447.933 2180.67 446.467 2183.73C445 2186.8 439.533 2194.13 434.333 2200C429.267 2205.87 425 2211.6 425 2212.8C425 2213.87 421.667 2219.2 417.667 2224.4C413.667 2229.73 410.333 2235.2 410.333 2236.8C410.333 2238.4 408.6 2241.33 406.333 2243.33C403.8 2245.73 402.333 2248.4 402.333 2250.67C402.333 2255.07 400.067 2259.33 397.8 2259.33C395.533 2259.33 394.333 2262.27 394.333 2268C394.333 2271.07 393.4 2273.2 391.667 2274.4C388.733 2276.4 386.333 2283.07 386.333 2289.07C386.333 2291.2 385 2294 383.267 2295.73C380.6 2298.13 379.933 2300.53 379.267 2309.33C378.867 2315.2 377.133 2323.87 375.667 2328.67C373.267 2335.73 372.6 2342 371.933 2362C371 2384.93 370.733 2387.07 367.8 2391.87C365.133 2396.13 364.6 2398.4 364.867 2406.67C365.133 2416.8 363.267 2423.87 359.267 2427.2C357.667 2428.53 357 2431.2 357 2436.93C357 2443.2 356.333 2445.73 353.8 2449.07C351.667 2451.87 350.2 2456 349.667 2461.33C349.133 2466.27 347.533 2471.2 345.667 2474C343.933 2476.53 342.067 2481.6 341.533 2485.33C341 2489.33 339.4 2493.6 337.533 2495.73C335.8 2497.87 334.333 2500.53 334.333 2501.73C334.333 2502.93 332.733 2506.13 330.867 2508.93C328.867 2511.73 326.867 2516.67 326.2 2520.13C325 2526.13 322.467 2530.53 315.267 2538.27L311.533 2542.27L311.933 2606.53L312.333 2670.67L315.667 2676.67C318.6 2682 319 2684.53 319.4 2700.67C319.8 2716.93 320.2 2718.93 322.733 2721.73C325.267 2724.4 325.8 2727.07 326.467 2738.53C327 2749.87 327.667 2752.93 330.2 2756.53C332.2 2759.33 333.533 2763.47 334.067 2769.07C334.467 2773.6 336.2 2780.27 337.933 2784C339.533 2787.6 341 2792.4 341 2794.67C341 2796.8 342.6 2802 344.6 2806C346.467 2810 348.467 2816.53 349.133 2820.53C349.667 2824.4 351.267 2828.93 352.6 2830.53C354.067 2832 355.8 2834.93 356.733 2836.93C358.467 2841.07 361.533 2841.87 362.867 2838.53C364.333 2834.8 363.667 2831.87 360.467 2827.6C358.2 2824.4 357.133 2820.67 356.467 2813.6C355.933 2808 354.2 2801.2 352.333 2797.2C349.933 2792.13 348.867 2786.93 348.2 2777.2C347.533 2767.33 346.6 2762.13 344.067 2756.67C341.267 2750.53 340.6 2746.53 340.067 2732.67C339.4 2719.2 338.733 2714.93 336.467 2710.67C333.933 2705.73 333.667 2702.53 332.867 2672C332.467 2653.6 331.267 2631.73 330.333 2623.33C328.867 2609.73 328.867 2606.93 330.867 2598.4C332.067 2593.07 333 2584.8 333 2580C333 2572.27 333.4 2570.8 336.467 2568C339.8 2564.93 340.067 2563.87 340.333 2551.33C340.733 2539.47 341.133 2537.33 344.067 2533.6C346.733 2530.13 347.4 2527.33 347.8 2519.2C348.333 2510.53 348.867 2508.53 352.067 2504.8C355.133 2501.07 355.667 2499.2 355.667 2492.13C355.667 2485.47 356.333 2483.07 358.867 2479.47C361.267 2476.27 362.333 2472.53 363 2466.13C363.533 2460.8 365.133 2454.93 367.133 2451.2C369.4 2446.8 370.333 2442.8 370.333 2437.73C370.333 2431.87 371.133 2429.33 374.333 2424.53C377.667 2419.73 378.333 2417.33 378.333 2410.67C378.333 2404 379 2401.6 382.333 2396.8C385.533 2392.13 386.333 2389.47 386.333 2383.73C386.333 2378 387 2375.6 389.667 2372.13C392.2 2368.8 393 2366.13 393 2360.8C393 2351.6 399.8 2338.8 408.733 2330.67C414.467 2325.6 415.4 2323.87 416.067 2318.53C416.467 2315.07 418.067 2310.53 419.8 2308.13C422.333 2304.8 423.133 2302 423.4 2293.73C423.933 2284.53 424.333 2283.2 427.8 2279.87C431.133 2276.67 431.667 2275.2 431.667 2268.53C431.667 2262.53 432.333 2259.73 435 2255.87C437 2252.8 438.333 2249.07 438.333 2246.13C438.333 2240.13 441 2236.27 444.467 2236.93C446.733 2237.33 447 2238.93 447.667 2254C448.2 2268.53 448.733 2271.2 451.267 2274.67C453.533 2277.73 454.6 2281.33 455.133 2289.33C455.933 2297.73 456.733 2300.8 459.267 2303.73C461 2305.87 462.333 2309.33 462.333 2311.47C462.333 2314 463.533 2316.53 465.533 2318.4C467.133 2320 469 2323.47 469.533 2326C470.067 2329.47 472.733 2333.07 479.133 2339.33C483.933 2344.13 491.8 2352.67 496.733 2358.4C501.533 2364.13 508.6 2370.93 512.2 2373.73C525.4 2383.2 529.667 2386 531.8 2386C532.867 2386 535.533 2387.87 537.667 2390C539.933 2392.27 542.867 2394 544.733 2394C546.467 2394 550.067 2395.73 552.6 2398C555 2400.13 558.067 2402 559.133 2402C560.333 2402 563.133 2403.33 565.4 2404.93C567.667 2406.67 572.333 2408.67 575.667 2409.33C580.867 2410.53 581.933 2411.47 584.2 2416L586.6 2421.2L591.533 2415.73C594.2 2412.67 597.8 2409.73 599.667 2409.2C601.533 2408.8 604.733 2406.93 606.733 2405.2C608.867 2403.47 611.667 2402 613 2402C614.467 2402 617.667 2400.13 620.067 2398C622.6 2395.73 625.133 2394 625.667 2394C626.333 2394 628.733 2392.53 631.133 2390.67C633.533 2388.8 636.067 2387.33 636.733 2387.33C639 2387.33 662.867 2364.67 677.933 2348.13C681 2344.8 685 2338.8 686.867 2334.8C688.733 2330.8 691.267 2326.93 692.2 2326.4C693.267 2325.87 695.4 2322.67 697 2319.33C698.467 2316 700.6 2311.87 701.667 2310C702.733 2308.13 703.667 2304.53 703.667 2302C703.667 2299.47 705.133 2294.93 707 2292C709.4 2288.13 710.2 2284.67 710.333 2279.6C710.333 2271.33 712.067 2267.33 715.667 2267.33C718.467 2267.33 719 2268.93 720.2 2280.27C720.6 2284.4 722.067 2288.8 723.667 2291.07C725.8 2293.87 726.6 2297.47 727.133 2306.67C727.667 2315.47 728.6 2319.6 730.467 2322.27C731.933 2324.27 733.533 2327.33 734.2 2329.07C735.133 2331.47 736.867 2332.53 740.6 2333.2C743.4 2333.6 746.333 2334.4 747.267 2335.07C748.2 2335.6 749.267 2340.27 749.8 2345.33C750.467 2352 751.533 2355.6 753.4 2357.73C755.4 2359.87 756.467 2363.47 757.133 2370C757.933 2376.53 759.133 2380.67 761.533 2384.27C764.333 2388.27 765 2390.93 765 2397.33C765 2404.67 765.4 2405.87 769 2409.33C772.733 2412.93 773 2413.87 773 2422.8C773 2430.93 773.533 2433.07 776.2 2436.27C778.6 2439.2 779.4 2442.13 780.067 2450.53C780.733 2459.47 781.267 2461.6 783.8 2463.47C786.2 2465.2 786.867 2467.47 787.667 2476.53C788.333 2484.93 789.4 2488.53 791.8 2491.73C794.333 2495.07 795 2497.87 795.267 2505.2C795.4 2512.27 796.2 2515.33 798.733 2519.2C801.133 2522.93 802.067 2526.4 802.6 2534.27C803.133 2542.67 803.933 2545.6 806.733 2549.73C809.133 2553.07 810.333 2556.53 810.333 2559.87C810.333 2563.33 811.4 2566.13 813.533 2568.8C818.333 2574.4 818.867 2583.87 817.8 2639.87C816.867 2688.53 816.867 2689.07 813.533 2695.47C810.6 2701.33 810.333 2703.47 810.333 2719.73C810.333 2736.8 810.2 2737.87 806.867 2742.67C803.8 2747.2 803.267 2749.6 802.467 2764C801.667 2777.07 801 2781.07 798.733 2784.8C796.733 2788 795.533 2792.67 794.867 2800C794.333 2807.47 793 2812.4 790.867 2816.53C787.133 2823.33 786.467 2835.33 789.533 2837.87C791.133 2839.2 791.8 2838.93 792.867 2836.8C793.667 2835.33 794.333 2832.93 794.333 2831.6C794.333 2830.13 796.2 2825.47 798.333 2821.33C800.467 2817.2 802.333 2812 802.333 2809.87C802.333 2807.87 803.8 2803.87 805.667 2801.2C807.533 2798.53 809 2794.53 809 2792.4C809 2787.6 811.8 2780.67 814.733 2778.13C816.333 2776.8 817 2774.13 817 2768.8C817 2763.07 817.8 2760.13 820.2 2756.67C822.733 2752.93 823.4 2749.73 823.933 2740C824.467 2730.4 825.4 2726.53 828.2 2721.33C831.4 2715.2 831.667 2713.47 831.667 2698.53C831.667 2683.87 831.933 2681.6 835.267 2674.53C838.733 2666.8 838.733 2666 839.4 2632.53C839.933 2598.4 839.933 2598.27 836.333 2585.47L832.733 2572.67L836.333 2568.4C839.4 2564.67 839.933 2563.2 839.4 2557.73C839 2553.73 837.533 2549.87 835.4 2547.07C833.533 2544.67 831.533 2540.67 831.133 2538.4C830.6 2536 829.533 2533.73 828.867 2533.2C828.2 2532.8 825.8 2528.93 823.667 2524.67C821.533 2520.4 819.133 2516.53 818.333 2516C817.667 2515.6 817 2512.67 817 2509.6C817 2504.93 816.2 2503.33 813 2500.4C809.667 2497.47 809 2495.87 809 2490.93C809 2486.53 808.2 2483.87 805.8 2481.07C804.067 2479.07 802.333 2474.8 801.933 2471.47C801.533 2468 799.933 2464.27 797.933 2462.13C795.133 2459.2 794.6 2456.93 794.067 2448.67C793.533 2440.8 792.6 2437.2 789.933 2432.53C786.867 2427.33 786.333 2424.93 786.333 2416.13C786.333 2406.27 785.133 2402 781.533 2398.4C780.6 2397.47 779.533 2391.07 779 2383.73C778.333 2375.87 777 2368 775.267 2364C773.133 2358.53 772.467 2352.8 771.8 2332.4C770.867 2307.47 770.867 2307.47 767.267 2304.13C764.6 2301.6 763.667 2299.47 763.667 2295.87C763.667 2292.8 762.733 2289.73 761.133 2288.13C758.2 2284.8 755.667 2277.6 755.667 2272.67C755.667 2270.27 754.6 2268.27 752.333 2266.8C749.667 2265.07 749 2263.47 749 2259.33C749 2255.07 748.333 2253.6 745 2251.33C741.8 2249.07 741 2247.47 741 2243.47C741 2239.47 740.2 2237.87 737 2235.6C734.867 2233.87 733 2231.73 733 2230.67C733 2227.73 725.667 2216.8 719.133 2210C715.933 2206.67 712.333 2201.47 711.133 2198.67C709.8 2195.73 707.8 2192.13 706.467 2190.67C705.133 2189.2 703.667 2185.33 703.4 2182C703 2178.53 701.267 2173.73 699.133 2170.8C697.267 2168 695.667 2164 695.667 2161.87C695.667 2159.33 693.533 2155.47 688.867 2150C685.133 2145.47 682.467 2141.07 682.867 2140C683.133 2139.07 685.667 2137.2 688.2 2136C690.733 2134.8 693.533 2132.93 694.467 2131.87C696.867 2128.93 702.867 2129.6 706.2 2133.2C707.933 2134.93 710.867 2136.8 712.733 2137.33C714.733 2137.87 719 2140.8 722.333 2144C729.133 2150.67 735.267 2155.2 743 2159.47C750.2 2163.33 810.333 2223.6 810.333 2226.93C810.333 2228.27 811.267 2230.8 812.467 2232.4C814.333 2235.07 815.533 2235.33 826.467 2235.33C836.6 2235.33 839.133 2235.73 841.933 2238C846.2 2241.33 849.133 2241.33 853.4 2238C856.6 2235.47 858.733 2235.33 896.333 2235.33C929.533 2235.33 936.467 2235.07 939.8 2233.2C942.867 2231.73 947.267 2231.2 958.067 2231.47C967.267 2231.73 973.4 2231.2 975.267 2230.27C976.867 2229.33 983.8 2228.27 990.6 2227.87L1003 2226.93L1010.73 2219.47C1015 2215.33 1019.8 2210.67 1021.27 2209.07C1022.87 2207.33 1026.07 2205.73 1028.47 2205.2C1030.87 2204.8 1034.73 2202.93 1037.13 2201.2C1039.53 2199.47 1042.6 2198 1043.8 2198C1045 2198 1048.47 2196 1051.53 2193.6C1059.67 2187.07 1063.93 2184.13 1067.67 2182.53C1074.47 2179.6 1103.67 2148.13 1103.67 2143.87C1103.67 2143.2 1106.73 2139.33 1110.6 2135.33C1114.33 2131.33 1119.93 2123.73 1123 2118.67C1126.07 2113.47 1131.13 2106.4 1134.47 2102.93C1137.67 2099.33 1141 2094.27 1141.67 2091.6C1142.6 2088.27 1144.33 2086.13 1146.73 2084.93C1150.87 2082.93 1151.93 2076.67 1148.2 2076.67C1146.87 2076.67 1135.8 2086.53 1123.53 2098.67C1111.13 2110.8 1100.47 2120.67 1099.8 2120.67C1098.33 2120.67 1088.87 2128.53 1079 2137.73C1072.07 2144.4 1066.07 2148.53 1058.33 2152.13C1055.8 2153.33 1053.13 2155.07 1052.6 2156.13C1051.27 2158.4 1035.8 2168.67 1033.67 2168.67C1032.87 2168.67 1030.73 2170.13 1029.13 2171.87C1027.4 2173.6 1024.47 2175.47 1022.6 2176C1020.6 2176.53 1017.13 2178.27 1014.73 2180.13C1012.2 2182 1008.73 2183.33 1006.07 2183.33C1002.73 2183.33 1000.73 2184.4 998.067 2187.33C995.667 2190 993.4 2191.33 990.733 2191.33C988.333 2191.33 985.667 2192.53 983.8 2194.53C982.067 2196.4 978.733 2198 975.4 2198.4C972.467 2198.8 968.6 2200.53 966.733 2202.27C963.8 2205.07 961.8 2205.33 941.267 2206.53C914.6 2208 898.067 2208 870.067 2206.67L849 2205.6L846.067 2200.93C844.333 2198.4 841.8 2194 840.333 2191.33C837.4 2185.73 832.067 2180.93 825 2177.33C822.467 2176 818.333 2173.2 815.933 2171.2C813.533 2169.07 810.867 2167.33 810.067 2167.33C807.933 2167.33 794.2 2158 793.4 2156C793.133 2154.93 791.133 2153.73 789 2153.33C787 2152.93 784.333 2151.47 783 2150C781.8 2148.67 779.133 2146.8 777 2146C774.867 2145.07 772.2 2142.93 771 2141.2C769.933 2139.47 767.933 2138 766.867 2138C763.8 2138 753.267 2131.47 749.133 2126.93C747 2124.67 744.333 2123.33 742.067 2123.33C739.667 2123.33 736.733 2121.87 734.067 2119.33C731.267 2116.67 728.6 2115.33 725.8 2115.33C722.733 2115.33 720.6 2114.13 718.067 2111.33C715.667 2108.67 713.267 2107.33 710.733 2107.33C707.8 2107.33 705.133 2105.47 699.667 2100C693.667 2093.87 691.667 2092.67 687.667 2092.67C685.133 2092.67 678.867 2091.2 673.667 2089.33C668.6 2087.6 661.8 2086 658.867 2086C648.6 2086 647.4 2078.13 657.4 2076.53C662.467 2075.73 667 2072.13 677.667 2060.93C681.267 2057.2 684.733 2054 685.533 2054C686.2 2054 688.6 2052.53 690.867 2050.8C693.133 2049.07 696.333 2047.33 697.933 2046.8C699.533 2046.27 702.067 2044.4 703.533 2042.53C704.867 2040.8 707.267 2039.33 708.6 2039.33C710.067 2039.33 713.533 2037.6 716.467 2035.33C719.267 2033.2 722.333 2031.33 723 2031.33C723.8 2031.33 727 2029.47 730.2 2027.33C733.4 2025.07 737.133 2023.33 738.333 2023.33C739.667 2023.33 742.333 2022 744.333 2020.4C746.333 2018.8 751.133 2017.07 754.867 2016.53C759.8 2015.73 762.333 2014.53 764.067 2012C766.333 2009.07 767.533 2008.67 774.867 2008.67C782.333 2008.67 783.4 2008.27 786.6 2004.67C789.8 2001.07 790.867 2000.67 798.6 2000.67C806.067 2000.67 807.667 2000.27 810.333 1997.33C812.067 1995.47 815 1994 816.867 1994C819.4 1994 823.4 1990.8 832.6 1981.33C842.467 1971.2 845.267 1967.47 846.467 1962.8C847.4 1958.8 848.867 1956.53 851.133 1955.47C853.667 1954.4 854.333 1953.07 854.333 1948.8C854.333 1944.4 855 1943.07 858.333 1940.67C861 1938.8 862.333 1936.67 862.333 1934.53C862.333 1931.2 868.6 1922 873.8 1917.73C875.4 1916.4 877 1913.47 877.533 1911.07C878.067 1908.4 881 1903.73 885 1899.47C888.733 1895.47 892.333 1890 893 1887.33C893.8 1884.13 897.933 1878.8 905.267 1871.2C922.333 1853.47 932.867 1840.67 937 1832.53C940.333 1826.13 940.733 1824.27 939.667 1820.53C938.467 1816.67 938.733 1815.6 941.533 1812.67C943.4 1810.8 945.267 1807.47 945.8 1805.33C946.333 1803.07 948.2 1799.47 949.933 1797.2C951.667 1794.93 953 1791.2 953 1788.93C953 1785.87 953.933 1784.13 956.333 1782.53C958.6 1781.07 959.933 1778.67 960.467 1775.2C961 1772.4 962.733 1768.8 964.467 1767.2C966.6 1765.2 967.667 1762.67 967.667 1759.6C967.667 1756.27 968.733 1754.13 971.667 1751.6C974.6 1748.93 975.667 1746.93 975.667 1743.6C975.667 1740.8 976.867 1737.6 978.867 1735.33C981.267 1732.4 982.2 1729.2 983 1721.2C983.8 1712.93 984.6 1710.27 987.133 1707.73C990.067 1704.8 990.333 1703.47 990.333 1691.87C990.333 1680.4 990.6 1678.8 994.067 1673.73C997.533 1668.4 997.667 1667.6 998.067 1646.8C998.467 1629.33 998.2 1624.8 996.6 1622.67C995.4 1621.2 994.067 1620.4 993.667 1620.93C993.133 1621.47 992.067 1627.2 991.4 1633.6C990.467 1641.73 989.267 1646 987.667 1647.33C986.2 1648.67 985.133 1652.4 984.6 1658.4C984.067 1664.4 982.6 1669.2 980.333 1673.07C977.8 1677.6 977 1680.8 977 1687.07C977 1693.87 976.467 1695.73 973.4 1699.33C970.733 1702.53 969.667 1705.47 969.267 1711.2C968.867 1717.07 968.067 1719.2 965.533 1721.47C963.533 1723.07 961.933 1726.27 961.4 1729.47C961 1732.27 959.133 1736.4 957.4 1738.4C955.8 1740.53 954.333 1743.87 954.333 1745.73C954.333 1747.73 952.467 1752 950.333 1755.2C948.067 1758.4 946.333 1762 946.333 1763.2C946.333 1764.4 944.467 1768.27 942.333 1772C940.2 1775.6 938.333 1779.33 938.333 1780.27C938.333 1784.13 927 1799.47 918.6 1806.93C911.667 1813.07 908.2 1817.6 904.2 1825.33C901.4 1830.93 897.933 1836.13 896.733 1836.8C895.267 1837.6 894.333 1839.6 894.333 1842.13C894.333 1844.93 892.867 1847.47 889.667 1850.8C886.067 1854.4 885.133 1856.13 885.8 1858.67C886.467 1861.2 885.667 1862.8 882.6 1865.6C880.467 1867.6 878.067 1871.33 877.133 1873.87C876.333 1876.4 872.867 1881.6 869.533 1885.6C866.067 1889.6 862.2 1894.8 861 1897.07C859.8 1899.47 857.933 1902.8 856.867 1904.67C854.867 1908.13 840.067 1924.27 824.733 1939.47C815.933 1948.27 815.8 1948.4 807.4 1948.93C799.4 1949.33 798.733 1949.73 791.667 1956.53C787.667 1960.4 782.6 1964.4 780.333 1965.47C773.4 1968.8 767.133 1973.2 761 1979.2C757.667 1982.27 753.533 1985.6 751.667 1986.53C747.533 1988.4 737.667 1994.93 732.6 1998.93C730.467 2000.67 727.533 2002 726.067 2002C724.6 2002 721.267 2003.73 718.733 2006C716.067 2008.4 712.733 2010 710.467 2010C708.333 2010 705.533 2011.33 703.667 2013.33C701.933 2015.2 699.267 2016.67 697.667 2016.67C696.067 2016.67 692.467 2018.4 689.667 2020.67C686.467 2023.2 683.133 2024.67 680.467 2024.67C677.667 2024.67 675.133 2025.87 672.6 2028.53C669.133 2032.27 661.667 2035.2 659.933 2033.47C659.533 2032.93 659 2026 658.867 2017.87C658.6 2003.73 658.733 2003.07 661.8 2001.07C663.933 1999.73 665.267 1997.2 665.8 1993.73C666.333 1990.67 667.8 1987.73 669.267 1986.93C670.6 1986 672.333 1982.93 673.133 1980C673.933 1977.07 675.667 1973.47 676.867 1972C678.2 1970.53 681.667 1964.8 684.733 1959.33C687.8 1953.87 691.4 1948.67 692.733 1947.73C694.2 1946.93 695.933 1943.6 696.733 1940.4C697.8 1936.53 700.067 1932.8 704.333 1928.67C707.933 1925.2 711 1920.67 711.667 1917.87C712.6 1914.67 716.467 1909.47 722.733 1902.8C731.133 1894 732.6 1891.73 733.933 1885.47C734.733 1881.6 735.133 1874.67 734.733 1870.27C734.067 1862.93 734.333 1861.73 737.533 1858C740.467 1854.4 741 1852.53 741 1845.47C741 1838 741.4 1836.8 745 1833.33C748.6 1829.87 749 1828.67 749 1821.6C749 1815.2 749.667 1812.67 752.2 1809.47C754.333 1806.67 755.533 1802.93 755.933 1797.73C756.333 1792.67 757.667 1788.53 759.933 1785.07C762.2 1781.6 763.533 1777.47 763.933 1772.4C764.333 1766.8 765.4 1763.87 768.067 1760.67C771 1757.2 771.667 1755.07 771.667 1749.33C771.667 1743.6 772.333 1741.33 775.133 1738C778.6 1734 778.6 1733.87 778.867 1708.8L779 1683.87L782.733 1678.13L786.467 1672.53L786.067 1621.6C785.667 1574.93 785.4 1570.27 783.133 1566.13C781.533 1563.2 780.467 1557.87 780.067 1550.8C779.267 1536 778.733 1534 775.8 1534C773.267 1534 773.133 1536.13 772.733 1603.6L772.333 1673.33L768.733 1679.47C765.667 1684.53 765 1687.07 765 1694.8C765 1703.47 764.733 1704.27 761 1707.6C758.867 1709.47 757 1712.4 757 1714C757 1715.6 755.267 1719.07 753 1721.6C749 1726 749 1726.27 749 1741.33C749 1755.47 748.733 1756.67 745.667 1760.4C742.733 1763.87 742.333 1765.6 742.333 1775.07C742.333 1784.67 741.933 1786.27 738.867 1789.87C736.2 1793.07 735.267 1796 734.467 1803.73C733.933 1810.53 732.733 1814.67 730.6 1817.6C728.733 1820.27 727.667 1823.73 727.667 1827.2C727.667 1833.47 725.133 1840.4 721.933 1843.2C720.6 1844.27 719.667 1846.93 719.667 1849.73C719.667 1853.87 718.6 1855.6 712.6 1861.33C705.133 1868.27 697 1881.33 697 1886.13C697 1889.33 695 1893.47 691.667 1897.33C690.467 1898.8 689 1901.87 688.6 1904.27C688.2 1906.53 686.2 1910 684.467 1911.87C681.8 1914.4 681.267 1916 681.8 1919.07C682.467 1922.4 681.933 1923.47 678.467 1925.87C675 1928.4 674.333 1929.73 674.333 1934C674.333 1938.13 673.667 1939.73 671.133 1941.33C669.133 1942.67 667.533 1945.33 667 1948.4C666.467 1951.07 664.733 1954.93 663 1956.93C661.267 1958.93 659.533 1963.07 659 1966.27C658.467 1969.33 657.133 1973.33 656.067 1974.93C655 1976.53 651.667 1982.67 648.6 1988.4C644.333 1996.53 640.6 2001.2 632.733 2008.53C623.933 2016.53 621.933 2017.73 619.4 2016.8C615.267 2015.33 614.867 2012.13 618.2 2007.87C619.8 2005.87 621 2003.2 621 2001.73C621 2000.4 623.667 1996.4 626.867 1992.93C634.467 1984.67 635.667 1982.13 635.667 1974.13C635.667 1967.87 635.267 1966.93 630.467 1962.53C620.867 1954 615.267 1950 612.867 1950C609.8 1950 609.667 1953.6 612.333 1957.2C615 1960.67 614.867 1967.87 612.067 1970.13C609.667 1972.13 593.667 1972.67 587.267 1970.93L583.4 1969.87L584.2 1933.6C584.733 1913.6 585.667 1851.47 586.333 1795.33C587.133 1739.2 588.333 1651.6 589 1600.67C589.667 1549.73 590.867 1462.13 591.667 1406C592.467 1349.87 591.833 1013.57 592.5 968.5C593.7 879.167 622.833 143 615.5 143C608.8 -424 585.2 880.767 584 882.5Z"
        fill="#7A7A7A" />
</svg>
    